<?xml version="1.0" encoding="utf-8"?>
<!-- Generator: Adobe Illustrator 24.1.0, SVG Export Plug-In . SVG Version: 6.00 Build 0)  -->
<svg version="1.1" id="Capa_1" xmlns="http://www.w3.org/2000/svg" xmlns:xlink="http://www.w3.org/1999/xlink" x="0px" y="0px"
	 viewBox="0 0 1271.8 512" style="enable-background:new 0 0 1271.8 512;" xml:space="preserve">
<style type="text/css">
	.st0{fill:none;}
	.st1{font-family:'CenturyGothic';}
	.st2{font-size:400px;}
</style>
<g>
	<path d="M130.8,116.9c0,9.8,0,156.7,0,165.8c0,7.6,6.2,13.8,13.8,13.8h82.9c22.9,0,41.4-18.6,41.4-41.4V144.6
		c0-22.9-18.6-41.4-41.4-41.4h-82.9C136.9,103.1,130.8,109.3,130.8,116.9z M241.3,144.6c0,7.6-6.2,13.8-13.8,13.8h-69.1v-27.6h69.1
		C235.1,130.8,241.3,136.9,241.3,144.6z M158.4,186h69.1c4.8,0,9.5-0.8,13.8-2.4v71.4c0,7.6-6.2,13.8-13.8,13.8h-69.1V186z"/>
	<path d="M199.8,20.2c-99,0-179.6,80.6-179.6,179.6s80.6,179.6,179.6,179.6c44.6,0,85.4-16.3,116.8-43.3l14.8,14.8l-9.8,9.8
		c-5,5-5.4,13-0.9,18.5l87.9,107.5c5.2,6.3,14.7,6.8,20.5,1l58.6-58.6c5.8-5.8,5.3-15.3-1-20.5l-107.5-87.9
		c-5.5-4.5-13.5-4.1-18.5,0.9l-9.8,9.8l-14.8-14.8c27-31.4,43.3-72.2,43.3-116.8C379.4,100.8,298.8,20.2,199.8,20.2L199.8,20.2z
		 M350,371.4l21.4-21.4l86,70.3l-37,37L350,371.4z M47.9,199.8c0-83.8,68.2-152,152-152s152,68.2,152,152s-68.2,152-152,152
		S47.9,283.6,47.9,199.8z"/>
</g>
<rect x="403.7" y="10.7" class="st0" width="856.1" height="378.3"/>
<text transform="matrix(1 0 0 1 403.7127 305.0823)" class="st1 st2">uery</text>
</svg>
